<svg preserveAspectRatio="none" overflow="visible" style="display: block;" width="28" height="28" viewBox="0 0 28 28" fill="none" xmlns="http://www.w3.org/2000/svg">
<g id="f7:doc-text">
<path id="Vector" d="M7.7775 26.5625H20.2225C22.6485 26.5625 23.8555 25.332 23.8555 22.8945V12.254C23.8555 10.742 23.6915 10.086 22.754 9.125L16.285 2.551C15.395 1.6365 14.668 1.4375 13.344 1.4375H7.7775C5.3635 1.4375 4.1445 2.6795 4.1445 5.1175V22.8945C4.1445 25.3435 5.3635 26.5625 7.7775 26.5625ZM7.871 24.676C6.664 24.676 6.031 24.031 6.031 22.8595V5.1525C6.031 3.9925 6.664 3.324 7.883 3.324H13.086V10.133C13.086 11.6095 13.836 12.336 15.289 12.336H21.969V22.8595C21.969 24.031 21.3475 24.676 20.129 24.676H7.871ZM15.5 10.566C15.043 10.566 14.855 10.379 14.855 9.91V3.6875L21.605 10.5665L15.5 10.566ZM18.3125 15.5585H9.4175C8.996 15.5585 8.6915 15.875 8.6915 16.2735C8.6915 16.6835 8.9965 17 9.418 17H18.3125C18.4083 17.0016 18.5035 16.9838 18.5923 16.9479C18.6812 16.9119 18.7619 16.8584 18.8297 16.7907C18.8974 16.7229 18.9509 16.6422 18.9869 16.5533C19.0228 16.4645 19.0406 16.3693 19.039 16.2735C19.039 15.875 18.7225 15.5585 18.3125 15.5585ZM18.3125 19.6485H9.4175C8.996 19.6485 8.6915 19.9765 8.6915 20.3865C8.6915 20.785 8.9965 21.09 9.418 21.09H18.3125C18.7225 21.09 19.039 20.785 19.039 20.3865C19.039 19.9765 18.7225 19.6485 18.3125 19.6485Z" fill="white"/>
</g>
</svg>
